<svg width="239" height="282" viewBox="0 0 239 282" fill="none" xmlns="http://www.w3.org/2000/svg">
<path d="M89.8243 17.4212C89.8322 15.742 91.1055 14.5402 92.8888 14.5402C97.8316 14.5402 102.774 14.5402 107.717 14.5402C112.66 14.5402 117.472 14.5402 122.348 14.5402C124.226 14.5402 125.412 15.6902 125.412 17.5048C125.412 19.2875 124.182 20.5052 122.371 20.5052C112.553 20.5052 102.731 20.5052 92.9126 20.5052C91.058 20.5052 89.8164 19.2597 89.8243 17.4173V17.4212ZM124.601 143.903C126.076 143.883 127.555 143.887 129.03 143.919C129.635 143.931 129.86 143.668 129.853 143.091C129.833 141.551 129.813 140.011 129.825 138.475C129.829 137.958 129.596 137.799 129.133 137.803C127.575 137.811 126.017 137.815 124.463 137.807C123.957 137.807 123.811 138.045 123.826 138.523C123.854 139.291 123.834 140.063 123.834 140.835C123.834 141.579 123.866 142.323 123.822 143.063C123.787 143.664 123.989 143.907 124.601 143.899V143.903ZM129.271 99.689C129.252 105.121 129.248 110.556 129.271 115.988C129.271 116.669 129.026 116.844 128.417 116.84C123.047 116.828 117.674 116.828 112.304 116.84C111.655 116.84 111.474 116.593 111.481 115.956C111.513 113.227 111.497 110.497 111.497 107.763C111.497 105.089 111.513 102.411 111.485 99.7368C111.477 99.0881 111.616 98.8096 112.339 98.8136C117.709 98.8414 123.083 98.8414 128.453 98.8136C129.129 98.8136 129.275 99.0563 129.271 99.685V99.689ZM124.336 104.631C124.364 103.999 124.072 103.796 123.518 103.796C121.414 103.796 119.307 103.796 117.203 103.796C116.693 103.796 116.412 103.983 116.42 104.58C116.448 106.724 116.448 108.873 116.42 111.018C116.412 111.611 116.65 111.782 117.199 111.774C119.303 111.758 121.41 111.746 123.514 111.778C124.182 111.79 124.36 111.523 124.336 110.895C124.297 109.88 124.325 108.857 124.325 107.843C124.325 106.768 124.293 105.694 124.336 104.623V104.631ZM141.759 145.507C141.759 142.06 141.747 138.61 141.77 135.164C141.77 134.583 141.593 134.388 141.015 134.408C139.975 134.444 138.931 134.416 137.891 134.42C137.18 134.42 136.824 134.792 136.824 135.534C136.824 140.501 136.824 145.463 136.824 150.429C136.824 151.623 136.824 151.623 135.63 151.623C130.695 151.623 125.764 151.623 120.829 151.623C119.761 151.623 119.754 151.623 119.738 152.733C119.726 153.724 119.761 154.719 119.726 155.709C119.702 156.386 119.943 156.613 120.631 156.609C127.401 156.585 134.171 156.585 140.94 156.609C141.597 156.609 141.774 156.418 141.77 155.765C141.739 152.347 141.755 148.925 141.759 145.507ZM140.711 85.5984C135.914 85.6302 131.122 85.6143 126.325 85.6143C124.463 85.6143 122.597 85.6302 120.734 85.6063C120.019 85.5944 119.671 85.8013 119.722 86.5971C119.781 87.5601 119.738 88.5271 119.738 89.4901C119.738 90.6759 119.746 90.6879 120.928 90.6879C125.942 90.6879 130.956 90.6998 135.974 90.6759C136.634 90.6759 136.851 90.8391 136.848 91.5474C136.816 96.6767 136.844 101.806 136.816 106.935C136.816 107.667 137.061 107.922 137.761 107.902C138.801 107.87 139.845 107.866 140.885 107.898C141.537 107.918 141.79 107.719 141.782 107.007C141.747 103.589 141.767 100.167 141.767 96.7483C141.767 93.3858 141.735 90.0193 141.786 86.6568C141.798 85.7933 141.529 85.5904 140.719 85.5944L140.711 85.5984ZM239 220.106L234.844 223.914C231.669 220.926 228.49 217.941 225.295 214.973C224.215 213.97 223.95 212.772 224.405 211.455C225.769 207.48 226.865 203.437 227.584 199.291C228.039 196.656 228.423 194.006 228.585 191.348C228.842 187.182 228.941 183.007 228.632 178.833C228.423 175.964 228.118 173.115 227.628 170.282C226.766 165.307 225.421 160.481 223.484 155.813C222.092 152.458 220.194 149.366 218.596 146.119C216.619 142.104 215.101 137.906 213.555 133.708C211.083 126.995 207.671 120.771 203.535 114.95C198.762 108.233 194.001 101.508 189.252 94.7706C187.129 91.7583 184.891 88.8216 182.949 85.6819C180.403 81.5634 178.726 77.1105 177.967 72.2916C177.481 69.1997 177.33 66.1277 177.572 63.0079C177.698 61.3605 178.109 59.7449 178.03 58.0776C177.975 56.9236 177.319 56.1675 176.176 56.0999C174.891 56.0203 173.618 56.1556 172.364 56.4421C168.528 57.3136 165.306 59.2356 162.736 62.236C160.383 64.9856 158.813 68.173 158.671 71.7862C158.461 77.1503 158.615 82.5263 158.552 87.8984C158.509 91.619 158.837 95.2879 159.877 98.8613C161.106 103.091 162.89 107.09 165.591 110.588C170.039 116.354 173.222 122.685 174.582 129.908C175.199 133.183 175.373 136.481 175.33 139.784C175.286 143.286 174.998 146.776 174.48 150.258C173.645 155.833 172.344 161.284 170.699 166.664C169.422 170.835 168.078 174.973 167.239 179.275C166.271 184.253 165.709 189.271 165.579 194.32C165.31 204.507 166.393 214.539 169.731 224.217C171.419 229.119 173.38 233.918 176.911 237.862C177.334 238.335 177.572 238.888 177.619 239.561C177.726 241.009 176.903 241.897 175.907 242.709C171.478 246.314 166.401 248.092 160.727 248.1C147.512 248.124 134.301 248.108 121.086 248.116C120.675 248.116 120.24 248.005 119.678 248.319C120.612 249.091 121.612 249.489 122.577 249.955C126.136 251.67 129.88 252.852 133.72 253.652C137.346 254.408 141.019 254.853 144.744 254.985C148.572 255.12 152.376 255.08 156.156 254.519C158.513 254.169 160.383 254.559 161.494 256.911C161.743 257.44 162.17 257.882 162.506 258.371C166.994 264.877 171.459 271.399 175.962 277.897L171.486 282C167.556 276.298 163.629 270.595 159.699 264.893C158.912 263.751 158.085 262.637 157.366 261.455C156.927 260.735 156.373 260.595 155.626 260.679C151.395 261.157 147.164 261.18 142.913 260.926C139.007 260.691 135.151 260.154 131.355 259.25C123.854 257.464 116.78 254.658 110.849 249.561C109.544 248.443 108.318 248.089 106.701 248.093C92.1692 248.132 77.6375 248.188 63.1098 248.093C54.1655 248.033 46.5023 242.163 43.9162 233.783C43.2756 231.71 42.987 229.605 42.983 227.448C42.9751 222.207 42.9672 216.971 42.9949 211.73C42.9989 210.954 42.809 210.671 42.0024 210.715C39.4994 210.85 37.0083 210.795 34.6555 209.768C32.6468 208.893 30.6341 208.017 28.6491 207.078C25.723 205.693 22.615 204.675 19.8827 202.896C15.8375 200.265 13.5797 196.469 12.9154 191.702C11.8003 183.728 17.2966 175.9 25.4146 174.332C29.3806 173.568 33.0817 174.44 36.6445 176.227C38.4555 177.134 40.3416 177.89 42.1843 178.73C42.7497 178.988 42.987 178.829 42.987 178.22C42.987 177.058 42.9791 175.9 42.987 174.738C42.9909 174.201 42.7893 173.946 42.2199 173.99C39.1554 174.221 36.336 173.342 33.5839 172.088C29.5111 170.226 25.3829 168.475 21.3418 166.545C17.0989 164.52 14.4022 161.093 13.125 156.565C11.8754 152.124 12.8956 148.013 14.8174 143.943C16.7312 139.888 19.6059 136.959 23.7459 135.375C26.8855 134.174 30.128 133.939 33.3941 134.961C36.2411 135.853 38.8549 137.293 41.5951 138.439C42.0103 138.614 42.5283 139.215 42.9395 138.483C43.2954 137.842 42.9079 136.704 42.3108 136.47C36.4744 134.154 30.8318 131.388 25.0824 128.869C22.6348 127.795 20.2504 126.684 18.3603 124.723C15.2365 121.484 13.5995 117.616 13.8723 113.095C14.1966 107.64 16.3476 102.948 20.4007 99.2752C22.6625 97.2258 25.4225 96.1594 28.4672 95.7097C32.5954 95.1009 36.2056 96.5414 39.7841 98.2644C40.5196 98.6186 41.2748 98.925 42.0143 99.2672C42.639 99.5537 42.9593 99.506 43.0147 98.6783C43.0779 97.7392 42.7418 97.2815 41.8798 96.8955C34.612 93.6723 27.3719 90.3934 20.1199 87.1304C16.6047 85.5466 13.0459 84.0504 9.57806 82.3672C4.18851 79.7528 0.965844 75.3238 0.167098 69.4265C-0.868899 61.7903 2.97457 54.7469 9.96953 51.5914C14.766 49.4306 19.5466 49.6137 24.3193 51.7983C30.2387 54.5082 36.1937 57.1385 42.1329 59.8046C42.7418 60.0792 42.9989 59.8603 42.9949 59.2236C42.987 58.2607 42.987 57.3016 42.987 56.3387C42.987 44.2018 42.9277 32.065 43.0107 19.9322C43.0661 11.703 48.3924 4.33734 55.9963 1.40062C58.5032 0.413759 61.1011 0.0158307 63.7781 0.0158307C91.7856 0.0158307 119.793 -0.0359 147.797 0.047665C156.567 0.07552 162.866 4.34927 166.654 12.2959C167.801 14.6994 168.303 17.2979 168.307 19.964C168.319 29.944 168.311 39.9241 168.311 49.9041C168.311 51.285 168.347 51.2213 169.62 50.9149C172.487 50.2265 175.361 49.5579 178.347 50.3419C181.024 51.0422 183.511 53.8795 183.962 56.6212C184.223 58.2049 183.962 59.7131 183.76 61.2411C183.005 66.9793 183.554 72.5423 185.713 77.9502C187.426 82.2398 190.3 85.7774 192.89 89.498C197.03 95.4471 201.202 101.376 205.413 107.277C207.995 110.895 210.593 114.496 212.859 118.336C215.892 123.481 218.308 128.905 220.261 134.536C221.874 139.183 223.966 143.596 226.319 147.894C228.711 152.259 230.483 156.871 231.815 161.674C232.574 164.408 233.251 167.162 233.67 169.951C234.548 175.809 235.062 181.706 234.773 187.655C234.587 191.527 234.295 195.383 233.658 199.199C233.001 203.146 232.084 207.042 230.878 210.858C230.661 211.547 230.819 211.961 231.313 212.418L238.992 220.098L239 220.106ZM43.0028 67.6916C43.0107 66.9673 42.7181 66.5933 42.125 66.3306C35.5848 63.4059 29.0524 60.4692 22.5083 57.5523C21.1045 56.9276 19.6929 56.2869 18.1428 56.1357C12.5358 55.5866 7.56934 59.1321 6.24864 64.6036C5.09797 69.3629 7.48234 74.6792 11.8557 76.7683C15.7229 78.6147 19.6612 80.3139 23.5719 82.0727C29.6851 84.8184 35.8062 87.5601 41.9233 90.2979C42.8921 90.7316 42.9791 90.6719 42.983 89.5776C42.9909 85.9326 42.983 82.2836 42.987 78.6386C42.987 74.9935 42.9672 71.3445 43.0028 67.6995V67.6916ZM55.0275 126.211C55.7116 124.977 56.2533 123.672 56.7713 122.355C58.5269 117.862 56.3996 112.387 52.046 110.393C46.2769 107.747 40.484 105.149 34.6951 102.542C32.0932 101.372 29.4162 101.169 26.7827 102.327C21.9389 104.456 20.6142 108.853 19.7364 113.135C20.0013 117.624 21.7372 120.692 25.4897 122.407C31.2905 125.057 37.1071 127.675 42.9356 130.27C47.6806 132.383 52.8685 130.107 55.0354 126.207L55.0275 126.211ZM47.5541 165.558C50.2983 162.912 51.8602 159.577 51.8483 155.709C51.8404 151.698 49.7961 148.797 46.2571 147.11C41.947 145.057 37.5381 143.21 33.1846 141.253C30.5115 140.051 27.8266 140.023 25.209 141.292C20.5905 143.529 19.333 147.834 18.558 151.718C18.6964 156.35 20.3888 159.303 23.8804 161.026C27.016 162.574 30.2308 163.962 33.4376 165.363C35.5215 166.274 37.4907 167.472 39.8118 167.81C42.7576 168.24 45.4267 167.6 47.5501 165.558H47.5541ZM49.9147 195.104C49.8001 190.914 47.8269 187.914 44.0665 186.155C40.5512 184.507 36.9529 183.035 33.4455 181.368C30.302 179.872 27.1702 179.462 24.0188 181.137C20.5865 182.96 18.7676 185.924 18.8071 189.808C18.8467 193.855 20.808 196.867 24.4735 198.578C28.5305 200.472 32.627 202.279 36.7433 204.042C43.0028 206.728 50.0966 201.801 49.9147 195.104ZM162.352 20.2226C162.332 16.1319 160.711 12.67 157.737 9.86456C154.768 7.06315 151.174 6.02853 147.188 6.03251C120.726 6.04047 94.2688 6.03251 67.8074 6.04047C65.9648 6.04047 64.1261 6.03649 62.2795 6.14393C57.8864 6.40259 54.47 8.42008 51.8127 11.8343C49.5391 14.7551 48.9539 18.1455 48.9618 21.7905C49.0053 48.1533 48.9776 74.516 48.9736 100.879C48.9736 101.11 48.9736 101.344 48.9657 101.575C48.9539 102.077 49.1081 102.427 49.63 102.638C50.7491 103.095 51.8365 103.644 52.9515 104.114C55.9488 105.375 58.5467 107.15 60.4447 109.856C62.8172 113.242 63.8137 117.039 63.2206 121.102C62.6788 124.79 61.1763 128.189 58.8986 131.145C56.6092 134.118 53.5684 136 49.8594 136.684C49.1911 136.808 48.9697 137.162 48.9657 137.759C48.9578 138.817 48.9894 139.88 48.9578 140.938C48.942 141.511 49.1753 141.85 49.6735 142.108C51.4173 143.011 52.9199 144.233 54.1655 145.753C56.3284 148.388 57.5977 151.368 57.8152 154.83C58.001 157.783 57.3486 160.496 56.2177 163.182C54.8021 166.553 52.8685 169.478 49.7407 171.443C49.1397 171.822 48.9736 172.267 48.9736 172.892C48.9736 175.081 49.0883 177.273 48.9341 179.45C48.8075 181.201 49.4125 182.291 50.7293 183.465C55.1026 187.369 56.5973 192.41 55.5929 198.148C54.897 202.116 52.8092 205.291 49.6063 207.719C49.2267 208.005 48.9301 208.308 48.9341 208.849C48.9657 215.446 48.9815 222.044 49.0132 228.646C49.0211 230.285 49.4284 231.861 50.1164 233.325C52.7776 239 57.2497 242 63.4934 242.02C79.7372 242.072 95.985 242.036 112.229 242.036C128.473 242.036 143.929 242.036 159.778 242.036C160.668 242.036 161.557 242.028 162.443 241.96C164.922 241.777 167.259 241.097 169.43 239.851C170.063 239.489 170.264 239.175 169.766 238.463C168.861 237.173 168.161 235.753 167.449 234.344C165.1 229.696 163.542 224.758 162.222 219.752C161.66 217.631 161.3 215.446 160.917 213.274C160.114 208.733 159.726 204.169 159.624 199.573C159.564 196.792 159.647 194.01 159.75 191.225C159.924 186.585 160.596 182.016 161.447 177.48C162.372 172.534 164.084 167.794 165.543 162.992C166.393 160.194 167.117 157.361 167.678 154.496C168.252 151.559 168.702 148.598 169.007 145.606C169.481 140.934 169.568 136.267 168.813 131.659C167.864 125.861 165.587 120.544 161.992 115.869C157.718 110.31 154.732 104.178 153.376 97.2457C152.799 94.305 152.542 91.3524 152.506 88.3799C152.447 83.5052 152.49 78.6306 152.49 73.756C152.49 71.3326 152.838 68.9411 153.566 66.645C155.029 62.033 157.643 58.1651 161.443 55.1687C162.119 54.6355 162.364 54.0625 162.364 53.2467C162.356 42.2361 162.396 31.2294 162.34 20.2187L162.352 20.2226ZM122.723 137.401C123.186 137.405 123.36 137.246 123.344 136.78C123.316 135.98 123.336 135.18 123.336 134.384C123.336 133.589 123.316 132.785 123.344 131.989C123.36 131.555 123.19 131.4 122.775 131.4C121.157 131.408 119.544 131.408 117.927 131.4C117.547 131.4 117.393 131.535 117.397 131.933C117.413 133.561 117.421 135.184 117.397 136.812C117.389 137.301 117.591 137.413 118.033 137.405C119.595 137.385 121.157 137.385 122.715 137.405L122.723 137.401ZM129.825 125.538C129.825 124.993 129.568 124.822 129.066 124.822C127.563 124.834 126.061 124.83 124.554 124.818C124.04 124.814 123.807 125.013 123.822 125.554C123.846 126.322 123.83 127.094 123.83 127.866C123.83 128.662 123.842 129.462 123.826 130.258C123.815 130.712 124.004 130.918 124.451 130.918C126.009 130.918 127.567 130.918 129.125 130.918C129.627 130.918 129.876 130.684 129.872 130.158C129.849 128.618 129.829 127.078 129.829 125.538H129.825ZM103.617 126.231C103.577 128.957 103.601 131.686 103.601 134.416C103.601 137.146 103.581 139.816 103.617 142.518C103.624 143.179 103.427 143.37 102.778 143.366C97.3847 143.342 91.9873 143.346 86.5938 143.366C85.9927 143.366 85.7752 143.175 85.7792 142.558C85.795 137.102 85.7911 131.647 85.7753 126.187C85.7753 125.634 85.9255 125.407 86.5226 125.407C91.9438 125.415 97.365 125.399 102.786 125.379C103.399 125.379 103.632 125.562 103.62 126.235L103.617 126.231ZM98.6738 131.121C98.6817 130.56 98.4603 130.413 97.9462 130.417C95.7833 130.437 93.6204 130.441 91.4574 130.417C90.9394 130.413 90.7338 130.536 90.7575 131.101C90.801 132.176 90.7694 133.25 90.7694 134.325C90.7694 135.455 90.7892 136.585 90.7615 137.715C90.7496 138.212 90.9196 138.396 91.4218 138.392C93.5571 138.372 95.6924 138.38 97.8276 138.392C98.3931 138.392 98.6778 138.197 98.6738 137.568C98.6501 135.419 98.6501 133.27 98.6738 131.121ZM94.6919 152.86C94.6919 152.035 94.2939 151.623 93.4978 151.623C88.5946 151.623 83.6914 151.623 78.7842 151.623C77.6019 151.623 77.6019 151.623 77.6019 150.437C77.6019 145.447 77.5822 140.457 77.6138 135.467C77.6178 134.615 77.3449 134.345 76.5264 134.404C75.6525 134.468 74.7747 134.42 73.8969 134.42C72.6355 134.42 72.6236 134.42 72.6236 135.654C72.6236 142.355 72.6434 149.052 72.6236 155.753C72.6236 156.465 72.8688 156.621 73.5252 156.613C76.8665 156.585 80.2117 156.601 83.553 156.601C86.9773 156.601 90.4016 156.589 93.826 156.613C94.4586 156.617 94.7236 156.418 94.6998 155.761C94.6643 154.798 94.6919 153.831 94.6919 152.868V152.86ZM116.922 140.867C116.922 140.067 116.914 139.267 116.922 138.471C116.926 138.097 116.855 137.799 116.412 137.795C114.771 137.787 113.126 137.787 111.485 137.795C111.062 137.795 110.841 138.021 110.845 138.471C110.857 140.071 110.853 141.666 110.853 143.266C110.853 143.72 111.078 143.899 111.517 143.899C113.107 143.891 114.692 143.887 116.282 143.899C116.784 143.899 116.946 143.668 116.926 143.183C116.899 142.411 116.918 141.639 116.918 140.867H116.922ZM111.62 130.922C112.387 130.918 113.154 130.922 113.917 130.922C114.684 130.922 115.451 130.914 116.219 130.922C116.665 130.922 116.934 130.783 116.926 130.254C116.907 128.686 116.911 127.114 116.926 125.542C116.93 125.061 116.756 124.822 116.262 124.826C114.7 124.834 113.142 124.834 111.58 124.834C111.074 124.834 110.829 125.041 110.837 125.578C110.853 127.094 110.857 128.606 110.837 130.123C110.829 130.688 111.078 130.93 111.62 130.926V130.922ZM72.6434 96.6727C72.6434 100.091 72.6553 103.513 72.6315 106.931C72.6276 107.552 72.7778 107.827 73.454 107.795C74.4939 107.743 75.5379 107.735 76.5778 107.803C77.3805 107.854 77.6178 107.576 77.6138 106.772C77.5822 101.754 77.6217 96.7324 77.5743 91.7145C77.5664 90.8749 77.7799 90.664 78.6024 90.668C83.6163 90.7078 88.6302 90.6759 93.648 90.6998C94.4191 90.6998 94.7513 90.461 94.7038 89.6493C94.6484 88.6584 94.6484 87.6636 94.6959 86.6728C94.7315 85.8928 94.4745 85.5944 93.6678 85.5984C86.9813 85.6222 80.2947 85.6222 73.6082 85.5984C72.8648 85.5984 72.6118 85.8013 72.6197 86.5773C72.6592 89.9398 72.6355 93.3062 72.6355 96.6687L72.6434 96.6727ZM85.7713 116.04C85.7871 110.552 85.799 105.065 85.7871 99.5736C85.7871 98.9807 86.0085 98.8175 86.5621 98.8215C91.9873 98.8374 97.4164 98.8454 102.842 98.8215C103.49 98.8215 103.609 99.0762 103.605 99.6572C103.581 102.359 103.593 105.061 103.593 107.767C103.593 110.473 103.569 113.227 103.609 115.956C103.617 116.661 103.371 116.856 102.711 116.852C97.3412 116.836 91.9675 116.836 86.5977 116.852C85.9888 116.852 85.7713 116.637 85.7713 116.036V116.04ZM90.7536 104.536C90.7812 106.712 90.7812 108.889 90.7536 111.07C90.7457 111.615 90.9355 111.798 91.4653 111.786C92.533 111.758 93.6006 111.778 94.6682 111.778C95.7082 111.774 96.7521 111.742 97.792 111.782C98.484 111.81 98.6857 111.539 98.6699 110.863C98.6343 108.853 98.6264 106.84 98.6699 104.826C98.6896 104.066 98.4326 103.792 97.6892 103.8C95.637 103.823 93.5808 103.816 91.5286 103.792C90.9829 103.784 90.7417 103.927 90.7496 104.536H90.7536Z" fill="#E1E2E9"/>
</svg>
