<svg width="19" height="19" viewBox="0 0 19 19" fill="none" xmlns="http://www.w3.org/2000/svg">
<path d="M17.2812 13.8122H19V18.9828H13.8293C13.8279 18.4924 13.8265 18.0023 13.8251 17.5119C13.8251 17.4334 13.8251 17.3552 13.8251 17.2577C13.8924 17.2577 13.952 17.2577 14.012 17.2577C15.0629 17.2588 16.1135 17.2602 17.1645 17.2613C17.2672 17.2613 17.2809 17.2472 17.2802 17.1358C17.2756 16.103 17.2704 15.0703 17.2665 14.0379C17.2665 13.9657 17.2756 13.8931 17.2809 13.8122H17.2812ZM1.72437 5.07286C1.72297 3.99526 1.72122 2.91801 1.71946 1.84041C1.71946 1.73664 1.73349 1.72157 1.83339 1.72192C2.88155 1.72297 3.93006 1.72402 4.97821 1.72507C5.04096 1.72507 5.10406 1.72507 5.17452 1.72507C5.17452 1.62832 5.17452 1.55015 5.17452 1.47162C5.17312 0.981199 5.17172 0.490775 5.17031 0H0V5.17066H1.71526C1.71911 5.13 1.72437 5.10125 1.72402 5.07251L1.72437 5.07286ZM13.8293 0.000350553C13.8279 0.0119188 13.8255 0.0234871 13.8255 0.0350553C13.8255 0.575258 13.8251 1.11546 13.8255 1.65566C13.8255 1.67494 13.8311 1.69422 13.8349 1.71701C13.8739 1.71946 13.9086 1.72367 13.9429 1.72367C15.0146 1.72332 16.0862 1.72262 17.1578 1.72157C17.2669 1.72157 17.2805 1.73384 17.2805 1.84006C17.2795 2.89417 17.2784 3.94828 17.2774 5.00275C17.2774 5.05673 17.2774 5.11107 17.2774 5.17066H19V0.000350553H13.8293ZM5.16506 17.2651C5.12334 17.263 5.08583 17.2591 5.04832 17.2591C3.97948 17.2595 2.91065 17.2602 1.84216 17.2609C1.73349 17.2609 1.71946 17.2486 1.71946 17.1424C1.72052 16.0883 1.72157 15.0342 1.72262 13.9801C1.72262 13.9261 1.72262 13.8718 1.72262 13.8122H0V18.9828H5.17066C5.17207 18.9713 5.17452 18.9597 5.17452 18.9481C5.17452 18.4079 5.17487 17.8677 5.17452 17.3275C5.17452 17.3082 5.16891 17.2889 5.16506 17.2655V17.2651ZM3.62648 3.4547C5.25935 3.4547 6.89223 3.4547 8.52511 3.45225C8.611 3.45225 8.62642 3.4845 8.62642 3.56022C8.62432 4.38683 8.62502 5.21343 8.62537 6.04039C8.62537 6.86138 8.62537 7.68203 8.62537 8.50303C8.62537 8.58365 8.58552 8.62397 8.50583 8.62397C6.86419 8.62397 5.22255 8.62397 3.5809 8.62397C3.46452 8.62397 3.46172 8.62186 3.46172 8.50969C3.46137 6.87961 3.46101 5.24989 3.46101 3.61982C3.46101 3.45435 3.46207 3.4547 3.62648 3.4547ZM5.17347 6.82142C5.17347 6.89118 5.20256 6.90836 5.26882 6.90766C5.52858 6.90415 5.78834 6.90625 6.0481 6.90625H6.70469C6.84023 6.90625 6.90801 6.83836 6.90801 6.70258C6.90801 6.22408 6.90801 5.74557 6.90801 5.26707C6.90801 5.21028 6.90731 5.16856 6.82633 5.16926C6.30681 5.17277 5.78764 5.17207 5.26812 5.16996C5.19731 5.16996 5.17417 5.20046 5.17417 5.26356C5.17417 5.78308 5.17487 6.30225 5.17312 6.82177L5.17347 6.82142ZM8.62712 10.4714C8.62467 12.1218 8.62467 13.7722 8.62677 15.4226C8.62677 15.5081 8.59908 15.5306 8.51635 15.5302C6.86875 15.5278 5.22149 15.5278 3.57389 15.5302C3.49046 15.5302 3.4547 15.5085 3.46207 15.4244C3.46522 15.3896 3.46066 15.3542 3.46066 15.3192C3.46066 13.7592 3.46066 12.1993 3.46066 10.6396C3.46066 10.5695 3.46277 10.4998 3.46277 10.4297C3.46277 10.3792 3.4831 10.355 3.53673 10.3585C3.58897 10.362 3.6419 10.3592 3.69448 10.3592C4.47727 10.3592 5.26006 10.3592 6.04319 10.3592C6.86699 10.3592 7.69079 10.3606 8.51459 10.3571C8.60469 10.3568 8.62747 10.3844 8.62712 10.4714ZM6.91327 12.167C6.91467 12.0927 6.89013 12.0748 6.81897 12.0752C6.30541 12.078 5.79184 12.0787 5.27828 12.0748C5.1959 12.0741 5.17277 12.1004 5.17312 12.1786C5.17557 12.6862 5.17522 13.1941 5.17417 13.7017C5.17417 13.7813 5.19836 13.8146 5.286 13.8139C5.7936 13.8101 6.30155 13.8097 6.80915 13.8139C6.89644 13.8146 6.91011 13.7813 6.90941 13.707C6.90626 13.4504 6.90836 13.1934 6.90836 12.9368H6.91221C6.91221 12.6802 6.90976 12.4233 6.91397 12.1667L6.91327 12.167ZM10.375 8.49216C10.375 7.67116 10.375 6.85052 10.375 6.02952C10.375 5.20852 10.375 4.38788 10.375 3.56688C10.375 3.45295 10.3753 3.45365 10.4854 3.45365C12.133 3.454 13.7803 3.4547 15.4279 3.45225C15.5141 3.45225 15.5439 3.47889 15.5379 3.56022C15.5351 3.59808 15.539 3.63594 15.539 3.67415C15.539 5.2222 15.539 6.77059 15.539 8.31863C15.539 8.38874 15.5344 8.45885 15.5379 8.52861C15.5414 8.59802 15.5194 8.63518 15.4436 8.62397C15.4293 8.62186 15.4145 8.62397 15.3998 8.62397C13.7697 8.62397 12.14 8.62397 10.5099 8.62397C10.4197 8.62397 10.3746 8.58003 10.3746 8.49216H10.375ZM12.0874 6.82808C12.0871 6.89083 12.1071 6.90766 12.1674 6.90731C12.4299 6.90485 12.6925 6.90625 12.9551 6.90625C13.212 6.90625 13.4686 6.9031 13.7252 6.90801C13.8034 6.90941 13.8265 6.88347 13.8262 6.80915C13.8244 6.29839 13.8248 5.78799 13.8258 5.27723C13.8258 5.20291 13.803 5.16856 13.7196 5.16891C13.2089 5.17242 12.6985 5.17242 12.1877 5.16891C12.1067 5.16821 12.0906 5.19766 12.0906 5.27022C12.0916 5.78939 12.0906 6.30891 12.0871 6.82808H12.0874ZM13.8118 15.4373C13.8108 15.5109 13.8342 15.5316 13.9065 15.5313C14.4204 15.5285 14.9346 15.5281 15.4485 15.5313C15.5264 15.5316 15.5481 15.5088 15.5467 15.4324C15.5386 14.9627 15.533 14.4926 15.5309 14.0225C15.5285 13.4353 15.5309 12.8485 15.5309 12.2613C15.5309 12.2091 15.5309 12.1572 15.5309 12.0976H12.1011V13.7943C12.6332 13.7943 13.1591 13.7943 13.6846 13.7943C13.8181 13.7943 13.8251 13.7988 13.8241 13.9299C13.8213 14.4323 13.8181 14.9346 13.8118 15.4366V15.4373ZM11.983 10.3575C11.4838 10.3606 10.9842 10.3613 10.4851 10.3568C10.3943 10.3561 10.3722 10.3851 10.3729 10.4717C10.3767 10.9303 10.375 11.3884 10.3753 11.847C10.3753 11.9195 10.3753 11.9917 10.3753 12.0766H10.484C10.9776 12.0766 11.4708 12.0766 11.9644 12.0766C12.0506 12.0766 12.0937 12.0333 12.0937 11.9469C12.0937 11.4533 12.0916 10.9601 12.0948 10.4665C12.0955 10.3806 12.0657 10.3568 11.983 10.3571V10.3575ZM10.3823 13.8146C10.3795 13.8318 10.3767 13.8402 10.3767 13.8486C10.376 14.3829 10.3767 14.9168 10.3743 15.451C10.3743 15.5148 10.4023 15.5299 10.4595 15.5292C10.6375 15.5267 10.8156 15.5278 10.9937 15.5278C11.3264 15.5278 11.6591 15.526 11.9917 15.5288C12.058 15.5295 12.0916 15.5102 12.0895 15.4415C12.0888 15.4152 12.0916 15.3889 12.0916 15.3627C12.0923 14.9045 12.0927 14.4463 12.093 13.9878C12.093 13.9306 12.093 13.8735 12.093 13.8143H10.382L10.3823 13.8146Z" fill="#0057FF"/>
</svg>
